<?xml version="1.0" encoding="UTF-8"?>
<svg width="36px" height="61px" viewBox="0 0 36 61" version="1.1" xmlns="http://www.w3.org/2000/svg" xmlns:xlink="http://www.w3.org/1999/xlink">
    <!-- Generator: Sketch 47.1 (45422) - http://www.bohemiancoding.com/sketch -->
    <title>Detailing</title>
    <desc>Created with Sketch.</desc>
    <defs></defs>
    <g id="Home-page" stroke="none" stroke-width="1" fill="none" fill-rule="evenodd">
        <g id="PSG-Home-page" transform="translate(-459.000000, -1914.000000)" fill="#CA2B38">
            <g id="3rd-Section-(Circle)" transform="translate(189.000000, 1879.000000)">
                <g id="Detailing" transform="translate(270.000000, 35.000000)">
                    <path d="M0,49.9628526 L4.3104,60.2349316 L19.5464,22.3258395 L12.7744,19.8770105 L0,49.9628526 Z M2.7768,49.9692737 L14.18,23.1124184 L16.1816,23.8371947 L4.26,53.5008526 L2.7768,49.9692737 Z" id="Fill-1"></path>
                    <path d="M16.182,22.3257592 L31.4188,60.2348513 L35.7284,49.9627724 L22.9548,19.8769303 L16.182,22.3257592 Z M19.5468,23.8371145 L21.5492,23.1123382 L32.9524,49.9691934 L31.4692,53.5007724 L19.5468,23.8371145 Z" id="Fill-2"></path>
                    <g id="Group-12" transform="translate(0.800000, 0.037563)">
                        <path d="M17.06472,8.73881184 C13.65432,8.73881184 10.88072,11.5215355 10.88072,14.9423513 C10.88072,18.3639697 13.65432,21.1474961 17.06472,21.1474961 C20.47512,21.1474961 23.24792,18.3639697 23.24792,14.9423513 C23.24792,11.5215355 20.47512,8.73881184 17.06472,8.73881184 M17.06472,23.7135092 C12.24472,23.7135092 8.32232,19.7790092 8.32232,14.9423513 C8.32232,10.1072987 12.24472,6.17279868 17.06472,6.17279868 C21.88392,6.17279868 25.80632,10.1072987 25.80632,14.9423513 C25.80632,19.7790092 21.88392,23.7135092 17.06472,23.7135092" id="Fill-3"></path>
                        <path d="M17.06472,8.73881184 C16.35832,8.73881184 15.78552,8.16412763 15.78552,7.45540395 L15.78552,2.048075 C15.78552,1.33935132 16.35832,0.764667105 17.06472,0.764667105 C17.77112,0.764667105 18.34392,1.33935132 18.34392,2.048075 L18.34392,7.45540395 C18.34392,8.16412763 17.77112,8.73881184 17.06472,8.73881184" id="Fill-5"></path>
                        <path d="M17.06472,39.8611724 C16.35832,39.8611724 15.78552,39.2872908 15.78552,38.5777645 L15.78552,33.1704355 C15.78552,32.4617118 16.35832,31.8878303 17.06472,31.8878303 C17.77112,31.8878303 18.34392,32.4617118 18.34392,33.1704355 L18.34392,38.5777645 C18.34392,39.2872908 17.77112,39.8611724 17.06472,39.8611724" id="Fill-8"></path>
                        <path d="M32.45456,37.1578289 L2.03776,37.1578289 C1.33136,37.1578289 0.75856,36.5831447 0.75856,35.8744211 C0.75856,35.1665 1.33136,34.5918158 2.03776,34.5918158 L32.45456,34.5918158 C33.16176,34.5918158 33.73376,35.1665 33.73376,35.8744211 C33.73376,36.5831447 33.16176,37.1578289 32.45456,37.1578289" id="Fill-10"></path>
                    </g>
                </g>
            </g>
        </g>
    </g>
</svg>