<?xml version="1.0" encoding="UTF-8" standalone="no"?>
<svg width="58px" height="53px" viewBox="0 0 58 53" version="1.1" xmlns="http://www.w3.org/2000/svg" xmlns:xlink="http://www.w3.org/1999/xlink">
    <!-- Generator: Sketch 46.2 (44496) - http://www.bohemiancoding.com/sketch -->
    <title>Fabrication-Icon</title>
    <desc>Created with Sketch.</desc>
    <defs></defs>
    <g id="Home-page" stroke="none" stroke-width="1" fill="none" fill-rule="evenodd">
        <g id="Fabrication-Icon" transform="translate(-3.000000, -6.000000)">
            <path d="M48.2396421,25.8868975 C47.9558536,25.8868975 47.6857708,25.9931818 47.4793792,26.1859212 L39.9710772,33.1602315 L35.8698497,29.0770119 L43.1137123,21.8877535 C43.3515465,21.6521832 43.4668355,21.3277782 43.4305558,20.9986142 C43.4249122,20.9470584 42.9097394,15.7660968 46.0056139,12.9709791 C47.5124341,11.6106991 49.1579236,11.137972 50.439003,11.0094791 L46.306333,14.9070978 C46.0926854,15.108562 45.9677217,15.3909292 45.9636906,15.681228 C45.9588533,15.97232 46.0749486,16.2578598 46.2821464,16.4648762 L49.5045971,19.6835446 C49.5610323,19.7953811 49.6343981,19.8961132 49.7246944,19.9833615 L53.0833958,23.2202727 C53.2930123,23.4217369 53.5695448,23.531987 53.8622017,23.531987 C54.1572773,23.531987 54.4370347,23.4193574 54.6474574,23.2139274 L58.7172425,19.2330262 C58.5576114,20.4886083 58.0384075,22.0955631 56.6089842,23.5549889 C54.5619984,25.6465681 51.3717964,25.9590756 49.6521349,25.9590756 C48.9563693,25.9590756 48.4790886,25.9075198 48.391211,25.8972087 C48.3404193,25.8900702 48.2896276,25.8868975 48.2396421,25.8868975 L48.2396421,25.8868975 Z M51.9369548,54.9397822 L37.766879,40.7484526 L30.1650559,33.1348502 C30.1642497,33.1348502 30.1642497,33.1340571 30.1642497,33.1340571 L28.9952345,31.9641369 L28.42927,31.3962299 L20.4025703,23.3582836 C20.1921476,23.1473014 19.9099715,23.0314992 19.6092524,23.0314992 C19.4375281,23.0314992 19.2658039,23.0711575 19.1110101,23.1465083 C18.9675034,23.2171001 18.5192466,23.3812855 17.4477838,23.3812855 C16.4448494,23.3812855 15.4983503,23.2385156 15.393542,23.2218591 C15.333882,23.2123411 15.2734157,23.2083752 15.2145618,23.2083752 C14.6727838,23.2083752 14.2108212,23.589095 14.1173,24.114171 L13.5352111,27.3883611 L10.4691666,30.1826856 L5.6616927,25.106422 L8.38590105,22.4271065 L11.9437381,22.1709138 C12.2541318,22.147912 12.5435638,21.9972104 12.7362497,21.7560879 C12.9289357,21.5157586 13.0111698,21.2040442 12.9603782,20.8994684 C12.9539284,20.8582238 12.3008924,16.793247 14.7517931,14.5422413 C16.7286379,12.7282702 18.9005874,12.5323582 19.7430845,12.5323582 C19.9333518,12.5323582 20.0502533,12.5426693 20.0615404,12.5434625 C20.1050761,12.5482215 20.1486118,12.550601 20.1913413,12.550601 C20.620249,12.550601 21.0040084,12.3142375 21.1926633,11.9327245 C22.3431354,9.59367742 25.5438182,8.44596593 25.8654989,8.33254316 C26.4411381,8.23894955 27.0103275,8.19056641 27.5577491,8.19056641 C31.7379859,8.19056641 33.7261178,10.9254035 33.8099644,11.0443784 C33.9115478,11.1831825 33.9921695,11.3124686 34.0518296,11.429064 C32.9602113,11.1839756 31.8976169,11.0602417 30.8906515,11.0602417 C26.003362,11.0602417 23.8338312,13.929917 23.7435349,14.0520646 C23.4960262,14.3875739 23.462165,14.8261948 23.654851,15.1958103 C24.6481107,17.0970297 23.654851,18.7031912 23.6145401,18.7666445 C23.3315578,19.1949543 23.3920241,19.7692066 23.7564344,20.1332699 L33.5108578,29.84559 C33.5108578,29.84559 33.511664,29.84559 33.511664,29.8463832 L39.1511542,35.4604135 C39.1511542,35.4604135 39.1519604,35.4612067 39.1519604,35.4619999 L55.2480893,51.4871298 L51.9369548,54.9397822 Z M27.5488807,45.6986028 C27.3166901,45.9397254 27.2086569,46.267303 27.2529989,46.596467 C27.2602549,46.6488159 27.9060349,51.8091552 24.8738516,54.6820032 C23.3992801,56.0787689 21.76669,56.5895679 20.4888355,56.747408 L24.5263719,52.7522298 C24.9544733,52.3286791 24.956892,51.6386245 24.5320154,51.2134874 L21.243455,47.9107434 C21.162027,47.8282541 21.0644747,47.7600418 21.0185203,47.7529033 L17.6662687,44.5215442 C17.4590708,44.3224595 17.1817321,44.2082435 16.9051995,44.2082435 L16.869726,44.2090367 C16.5746504,44.2130025 16.2876371,44.3367365 16.0836641,44.5461323 L12.1122375,48.6206271 C12.2412323,47.3626655 12.7217378,45.7438133 14.1140751,44.2510745 C16.202178,42.0143458 19.5366929,41.6796297 21.3393948,41.6796297 C21.877948,41.6796297 22.2246214,41.7121495 22.2754131,41.7169085 C22.3149178,41.7208743 22.3544224,41.7224607 22.3931209,41.7224607 C22.6873902,41.7224607 22.9639227,41.6114174 23.1735392,41.4099532 L29.3548075,35.4501024 L33.4592599,39.5610828 L27.5488807,45.6986028 Z M49.6529411,28.1498007 C51.7257258,28.1498007 55.5947628,27.7508381 58.2141629,25.0746953 C61.9509802,21.2563932 60.8650054,16.6298548 60.8174386,16.4347359 C60.722305,16.0516366 60.4240045,15.7462676 60.0378264,15.6391902 C59.9386617,15.6114294 59.8370783,15.5971524 59.7354949,15.5971524 C59.4396132,15.5971524 59.160662,15.7105752 58.9502393,15.9167984 L53.855752,20.8986753 L51.5265901,18.6690851 C51.4757984,18.5723188 51.4104948,18.482691 51.3306793,18.4033744 L48.6604875,15.7224726 L53.825922,10.8500527 C54.115354,10.5764103 54.2330617,10.1687229 54.1330908,9.7864168 C54.0331198,9.4041107 53.7307883,9.10350071 53.3405791,9.0003891 C53.2543139,8.97897361 52.4626085,8.78702739 51.2847249,8.78702739 C49.489279,8.78702739 46.8537545,9.2327868 44.5004061,11.3560927 C41.1900778,14.3455361 41.1062312,19.1322941 41.1779845,20.697211 L34.3041756,27.5192335 L33.9446027,27.1599292 L25.8912978,19.1418121 C26.2355526,18.2748815 26.6233432,16.7052056 25.9574077,14.9150295 C26.6048002,14.3407771 28.1898234,13.2509668 30.8906515,13.2509668 C31.8508563,13.2509668 32.8812021,13.3881845 33.9526649,13.6586542 C34.0437674,13.6824492 34.1372886,13.6943467 34.2316161,13.6943467 C34.2687021,13.6943467 34.3065943,13.6927603 34.3428741,13.6887945 C34.4815434,13.6753107 35.7142497,13.5238159 36.1971739,12.4728707 C36.5551344,11.6979473 36.3648671,10.7937379 35.6352404,9.79038264 C35.5272073,9.63492206 32.9328,5.99984137 27.5577491,5.99984137 C26.8635959,5.99984137 26.1460625,6.06170833 25.4285291,6.18385593 C25.376125,6.19178759 25.3269457,6.20368508 25.276154,6.2195484 C25.1157168,6.26951787 21.377287,7.45847401 19.5447551,10.3440126 C18.3652591,10.374153 15.6620124,10.7112486 13.2320734,12.9408388 C10.8883996,15.094285 10.5981614,18.2376027 10.6594339,20.0666439 L7.80945566,20.2712808 C7.54340394,20.2903168 7.29267035,20.4037396 7.1040155,20.5893404 L3.32769355,24.3053241 C2.90120458,24.7241158 2.88991754,25.3919618 3.30028216,25.8258237 L9.59683947,32.4749359 C9.80645597,32.6962293 10.103144,32.8231359 10.4119252,32.8231359 C10.693295,32.8231359 10.9617654,32.7192311 11.168157,32.5312507 L15.3234011,28.7446753 C15.5007689,28.5828694 15.6217015,28.3655419 15.6636248,28.1299715 L16.1288122,25.512523 C16.5907748,25.5521814 17.0325819,25.5720105 17.4477838,25.5720105 C18.1822478,25.5720105 18.7925543,25.5117299 19.3069209,25.3872028 L27.47229,33.5647463 L27.7947769,33.8867718 L21.970663,39.5023885 C21.7957138,39.4944568 21.5828725,39.4889047 21.3393948,39.4889047 C19.1714764,39.4889047 15.1371649,39.9156281 12.4742291,42.7694401 C8.8164211,46.6916469 10.0273595,51.2753544 10.0797636,51.4665074 C10.1821532,51.8480204 10.4885158,52.1462509 10.878725,52.2453966 C10.9690214,52.2683985 11.0617364,52.2795028 11.1544513,52.2795028 C11.4559766,52.2795028 11.7486335,52.1573552 11.9590562,51.9424072 L16.9124555,46.8621776 L19.6382763,49.4899373 C19.7164793,49.5652881 19.804357,49.6263619 19.8357995,49.627155 L22.1722173,51.9741338 L17.1091725,56.9853579 C16.8261902,57.2653455 16.7181571,57.6754124 16.8278027,58.0553391 C16.9358358,58.4352657 17.2462295,58.7295303 17.6356324,58.8215376 C17.6662687,58.8286761 18.3821897,59 19.4762266,59 C21.3240767,59 24.0281296,58.5248934 26.418564,56.2604039 C29.6555265,53.1940234 29.6216654,48.4080586 29.5128261,46.8455212 L35.0209028,41.1252065 L37.0703073,43.1771275 L51.158955,57.2859678 C51.3669591,57.4945706 51.6418792,57.6143386 51.9587226,57.6143386 L51.9643661,57.6143386 C52.2650852,57.6119592 52.5561297,57.4858457 52.7633275,57.2708977 L57.6054688,52.2208085 C58.0190583,51.7893261 58.0109961,51.120687 57.5869258,50.7003089 L43.9231545,37.0951291 L43.9231545,37.0951291 L41.5367513,34.7188031 L48.6427508,28.118074 C48.903159,28.1347305 49.2474138,28.1498007 49.6529411,28.1498007 L49.6529411,28.1498007 Z" id="Fabrication" fill="#CA2B38"></path>
            <rect id="Rectangle-8-Copy-3" x="0" y="0" width="65" height="65"></rect>
        </g>
    </g>
</svg>