<?xml version="1.0" encoding="UTF-8"?>
<svg width="62px" height="45px" viewBox="0 0 62 45" version="1.1" xmlns="http://www.w3.org/2000/svg" xmlns:xlink="http://www.w3.org/1999/xlink">
    <!-- Generator: Sketch 47.1 (45422) - http://www.bohemiancoding.com/sketch -->
    <title>Gears</title>
    <desc>Created with Sketch.</desc>
    <defs></defs>
    <g id="Home-page" stroke="none" stroke-width="1" fill="none" fill-rule="evenodd">
        <g id="PSG-Home-page" transform="translate(-251.000000, -2228.000000)" stroke="#CA2B38" stroke-width="2.4">
            <g id="3rd-Section-(Circle)" transform="translate(189.000000, 1879.000000)">
                <g id="Gears" transform="translate(63.000000, 350.000000)">
                    <path d="M20.8632,28.8209093 C17.2504,28.8209093 14.3056,25.9534463 14.3056,22.4306315 C14.3056,18.9117981 17.2504,16.0443352 20.8632,16.0443352 C24.48,16.0443352 27.4192,18.9117981 27.4192,22.4306315 C27.4192,25.9534463 24.48,28.8209093 20.8632,28.8209093 Z M35.696,17.8575019 L34.6624,15.4144648 C34.6624,15.4144648 37.0632,10.0195574 36.8544,9.81331667 L33.6744,6.72129815 C33.4528,6.50789074 28.0312,8.96924259 28.0312,8.96924259 L25.5288,7.96352037 C25.5288,7.96352037 23.3136,2.49376111 23.0136,2.49376111 L18.5192,2.49376111 C18.2096,2.49376111 16.1648,7.9778537 16.1648,7.9778537 L13.6648,8.98755741 C13.6648,8.98755741 8.1256,6.64326111 7.9136,6.84631667 L4.736,9.94550185 C4.516,10.1628907 7.0456,15.447113 7.0456,15.447113 L6.0152,17.89015 C6.0152,17.89015 0.4,20.0393537 0.4,20.3339833 L0.4,24.7160019 C0.4,25.0177981 6.028,27.0117241 6.028,27.0117241 L7.0616,29.4467981 C7.0616,29.4467981 4.6584,34.845687 4.8688,35.0519278 L8.0512,38.1479278 C8.2656,38.35815 13.692,35.8920204 13.692,35.8920204 L16.1968,36.9057056 C16.1968,36.9057056 18.4072,42.370687 18.7104,42.370687 L23.2032,42.370687 C23.5112,42.370687 25.56,36.8873907 25.56,36.8873907 L28.0632,35.8768907 C28.0632,35.8768907 33.5952,38.221187 33.8096,38.0189278 L36.9896,34.9189463 C37.2064,34.7095204 34.6768,29.4213167 34.6768,29.4213167 L35.7104,26.9782796 C35.7104,26.9782796 41.3264,24.8227056 41.3264,24.5272796 L41.3264,20.1492426 C41.3264,19.8506315 35.696,17.8575019 35.696,17.8575019 Z" id="Stroke-1"></path>
                    <path d="M53.11472,11.0528315 C52.41872,12.6000352 50.56352,13.2864426 48.97072,12.5785352 C47.38672,11.8746093 46.65872,10.0399426 47.35392,8.48796111 C48.04752,6.94394259 49.90912,6.26151667 51.49552,6.96544259 C53.08032,7.67733148 53.80752,9.50881296 53.11472,11.0528315 Z M57.65232,10.6626463 L57.67872,9.38697963 C57.67872,9.38697963 59.79792,7.48860926 59.74672,7.35642407 L58.96352,5.37762778 C58.90352,5.24146111 56.03712,5.25977593 56.03712,5.25977593 L55.13872,4.33129444 C55.13872,4.33129444 55.24672,1.49727593 55.11392,1.43835 L53.14032,0.557646296 C53.00032,0.494738889 51.02432,2.51016481 51.02432,2.51016481 L49.72832,2.45920185 C49.72832,2.45920185 47.75792,0.34822037 47.62432,0.399183333 L45.61552,1.13973889 C45.47952,1.18751667 45.54592,4.00242407 45.54592,4.00242407 L44.60752,4.87675741 C44.60752,4.87675741 41.72032,4.72147963 41.66272,4.85047963 L40.79712,6.77433148 C40.73552,6.91049815 42.81632,8.88531296 42.81632,8.88531296 L42.78992,10.153813 C42.78992,10.153813 40.67232,12.0553685 40.72352,12.1875537 L41.50432,14.1703315 C41.56352,14.303313 44.43152,14.2810167 44.43152,14.2810167 L45.32752,15.2134796 C45.32752,15.2134796 45.22192,18.0467019 45.35472,18.1056278 L47.32912,18.9831463 C47.46512,19.0452574 49.44432,17.0409796 49.44432,17.0409796 L50.74192,17.0847759 C50.74192,17.0847759 52.70912,19.19735 52.84432,19.1487759 L54.84992,18.4082204 C54.98992,18.3604426 54.92192,15.5415537 54.92192,15.5415537 L55.85792,14.6751833 C55.85792,14.6751833 58.74512,14.8224981 58.80512,14.6934981 L59.67152,12.7696463 C59.72992,12.6374611 57.65232,10.6626463 57.65232,10.6626463 Z" id="Stroke-3"></path>
                </g>
            </g>
        </g>
    </g>
</svg>