<?xml version="1.0" encoding="UTF-8" standalone="no"?>
<svg width="67px" height="67px" viewBox="0 0 67 67" version="1.1" xmlns="http://www.w3.org/2000/svg" xmlns:xlink="http://www.w3.org/1999/xlink">
    <!-- Generator: Sketch 46.2 (44496) - http://www.bohemiancoding.com/sketch -->
    <title>Helmet-Icon</title>
    <desc>Created with Sketch.</desc>
    <defs></defs>
    <g id="Home-page" stroke="none" stroke-width="1" fill="none" fill-rule="evenodd">
        <g id="Helmet-Icon" transform="translate(1.000000, 1.000000)">
            <circle id="Oval" stroke="#ACAEB0" cx="32.5" cy="32.5" r="32.5"></circle>
            <path d="M52,42 L15,42 L15,38.5466061 C15,37.6942564 15.7306481,37 16.6276764,37 L18.5784458,37 L48.4215542,37 L50.3723236,37 C51.2693519,37 52,37.6942564 52,38.5466061 L52,42 Z M25,22 L25,36 L18,36 C18.5345605,28.6072086 21.6958675,24.3930545 25,22 L25,22 Z M33.5002574,19 C33.9867728,19.0407298 36.8770346,19.3540361 40,21.1153397 L40,36 L27,36 L27,21.1153397 C30.1250248,19.3529918 33.0163162,19.0402076 33.5002574,19 L33.5002574,19 Z M48,36 L41,36 L41,22 C44.3041325,24.3934907 47.4654395,28.6074865 48,36 L48,36 Z M49.8785173,35.5009247 L49.8785173,35.4993642 L49.8500616,35.4993642 L49.3505634,35.4993642 C48.1777843,18.240608 33.2040168,17.0140446 33.0505596,17.0036412 L33.0002541,17 L32.9494404,17.0036412 C32.7959832,17.0140446 17.8222157,18.240608 16.6494366,35.4993642 L16.1499384,35.4993642 L15.8242229,35.4993642 L15.8242229,35.5165299 C14.2403613,35.6845451 13,37.0588371 13,38.7239048 L13,44 L53,44 L53,38.7239048 C53,36.9558433 51.6021164,35.5170501 49.8785173,35.5009247 L49.8785173,35.5009247 Z" id="Helmet-Copy" fill="#CA2B38"></path>
        </g>
    </g>
</svg>