<?xml version="1.0" encoding="UTF-8"?>
<svg width="56px" height="62px" viewBox="0 0 56 62" version="1.1" xmlns="http://www.w3.org/2000/svg" xmlns:xlink="http://www.w3.org/1999/xlink">
    <!-- Generator: Sketch 47.1 (45422) - http://www.bohemiancoding.com/sketch -->
    <title>Installation</title>
    <desc>Created with Sketch.</desc>
    <defs></defs>
    <g id="Home-page" stroke="none" stroke-width="1" fill="none" fill-rule="evenodd">
        <g id="PSG-Home-page" transform="translate(-1091.000000, -2210.000000)" fill="#CA2B38">
            <g id="3rd-Section-(Circle)" transform="translate(189.000000, 1879.000000)">
                <g id="Installation" transform="translate(902.000000, 331.000000)">
                    <polygon id="Fill-1" points="24.5792 48.2760615 26.9792 48.2760615 26.9792 17.372241 24.5792 17.372241"></polygon>
                    <polygon id="Fill-2" points="34.9464 48.2760615 37.3464 48.2760615 37.3464 17.372241 34.9464 17.372241"></polygon>
                    <polygon id="Fill-3" points="35.38336 49.1958872 25.01616 40.7042718 25.03856 38.8458615 34.18896 31.7198359 25.04896 24.7456308 24.96576 22.9245795 31.96976 16.4964513 33.59856 18.2475538 27.63936 23.7162718 36.87696 30.7651949 36.88736 32.649041 27.69456 39.8076564 36.90976 47.3565538"></polygon>
                    <polygon id="Fill-4" points="0 18.5645487 55.0824 18.5645487 55.0824 16.1791385 0 16.1791385"></polygon>
                    <polygon id="Fill-5" points="0.64584 16.2769872 1.59624 18.4676538 31.68584 5.5899359 30.73624 3.39926923"></polygon>
                    <polygon id="Fill-6" points="30.0112 16.6759333 32.4112 16.6759333 32.4112 0.794394872 30.0112 0.794394872"></polygon>
                    <polygon id="Fill-7" points="53.73968 18.3922205 30.59008 4.47163077 31.83168 2.43198974 54.98208 16.3525795"></polygon>
                    <polygon id="Fill-8" points="11.63728 39.1248615 3.98448 39.1248615 3.98448 17.3724 6.38448 17.3724 6.38448 36.7402462 9.23728 36.7402462 9.23728 17.3724 11.63728 17.3724"></polygon>
                    <polygon id="Fill-9" points="5.1848 33.9564462 10.4376 33.9564462 10.4376 31.5718308 5.1848 31.5718308"></polygon>
                    <path d="M16.20288,54.8798564 L13.49328,61.5543949 L48.57328,61.5543949 L45.86368,54.8798564 L16.20288,54.8798564 Z M17.82288,57.2644718 L44.24288,57.2644718 L45.01728,59.1697795 L17.04928,59.1697795 L17.82288,57.2644718 Z" id="Fill-10"></path>
                    <path d="M26.9792,54.8798564 L34.9464,54.8798564 L34.9464,49.4683692 L26.9792,49.4683692 L26.9792,54.8798564 Z M24.5792,57.2644718 L37.3464,57.2644718 L37.3464,47.0837538 L24.5792,47.0837538 L24.5792,57.2644718 Z" id="Fill-11"></path>
                    <path d="M42.8296,24.9926769 L55.5608,24.9926769 L55.5608,16.1799333 L42.8296,16.1799333 L42.8296,24.9926769 Z M45.2304,22.6080615 L53.1608,22.6080615 L53.1608,18.5645487 L45.2304,18.5645487 L45.2304,22.6080615 Z" id="Fill-12"></path>
                    <path d="M6.86544,50.2336718 C4.23344,50.2336718 2.09264,48.1065949 2.09264,45.4914667 C2.09264,43.2888769 3.61264,41.4320564 5.66544,40.9018769 L5.66544,37.9322359 L8.06544,37.9322359 L8.06544,43.1346718 L6.86544,43.1346718 C5.55664,43.1346718 4.49264,44.1918513 4.49264,45.4914667 C4.49264,46.7918769 5.55664,47.8490564 6.86544,47.8490564 C8.17344,47.8490564 9.23744,46.7918769 9.23744,45.4914667 L11.63744,45.4914667 C11.63744,48.1065949 9.49664,50.2336718 6.86544,50.2336718" id="Fill-13"></path>
                </g>
            </g>
        </g>
    </g>
</svg>