<?xml version="1.0" encoding="UTF-8" standalone="no"?>
<svg width="44px" height="65px" viewBox="0 0 44 65" version="1.1" xmlns="http://www.w3.org/2000/svg" xmlns:xlink="http://www.w3.org/1999/xlink">
    <!-- Generator: Sketch 46.2 (44496) - http://www.bohemiancoding.com/sketch -->
    <title>Excellence-Icon</title>
    <desc>Created with Sketch.</desc>
    <defs></defs>
    <g id="About-Us-Page" stroke="none" stroke-width="1" fill="none" fill-rule="evenodd">
        <g id="Excellence-Icon" transform="translate(-18.000000, -8.000000)">
            <g id="Ribbon-Icon" transform="translate(19.000000, 9.000000)" stroke="#CA2B38" stroke-width="2" stroke-linecap="round" stroke-linejoin="round">
                <path d="M14.2352538,37.8373154 C13.1093308,37.7468538 11.9801769,37.5675462 10.8526385,37.5901615 C9.15486923,37.6224692 8.08063846,36.9262385 7.72686923,35.2559308 C7.23579231,32.9475462 5.96448462,31.2659308 3.8241,30.2627769 C2.23779231,29.5197 1.81456154,28.3113923 2.34117692,26.6992385 C3.07779231,24.4490077 2.71917692,22.3732385 1.38971538,20.4315462 C0.473792308,19.0956231 0.659561538,17.7871615 1.80325385,16.7371615 C3.61086923,15.0765462 4.42663846,13.1073923 4.24086923,10.6536231 C4.12133077,9.08023846 4.90317692,8.03831538 6.48463846,7.71039231 C8.78494615,7.23223846 10.5021,6.01908462 11.5165615,3.86254615 C12.2951769,2.20839231 13.5681,1.75931538 15.2755615,2.32631538 C17.2624846,2.98539231 19.1654077,2.84808462 20.9148692,1.60908462 C22.6174846,0.404007692 24.1488692,0.538084615 25.5203308,2.14862308 C26.8465615,3.70746923 28.5297923,4.38916154 30.5700231,4.19208462 C32.5197923,4.00308462 33.7474846,4.78977692 34.2288692,6.76054615 C34.7651769,8.95100769 36.1334077,10.5583154 38.1316385,11.5469308 C39.7454077,12.3465462 40.0975615,13.5758538 39.5564077,15.1250077 C38.7907154,17.3170846 39.1638692,19.3379308 40.3980231,21.2004692 C41.4189462,22.7399308 41.2557923,24.0984692 39.9198692,25.2405462 C38.0783308,26.8171615 37.4612538,28.7960077 37.6244077,31.1253923 C37.7374846,32.7343154 36.9653308,33.7455462 35.4032538,34.0767 C33.0124846,34.5839308 31.2985615,35.8633154 30.2598692,38.1232385 C29.6541,39.4413923 28.5475615,40.0245462 27.0662538,39.5512385 C24.6803308,38.7871615 22.4591769,38.9826231 20.3704846,40.4897769 C19.1524846,41.3701615 17.9571,41.1246231 16.8667154,40.1133923 C16.0347923,39.3428538 15.1527923,38.6272385 14.2352538,37.8373154 Z" id="Stroke-1"></path>
                <path d="M28.1112462,62.1785769 C26.4845538,61.2045 24.8352462,60.2691923 23.2360154,59.2498846 C22.0890923,58.5165 21.1004769,58.4405769 19.9196308,59.2821923 C18.5045538,60.2918077 16.9344,61.0865769 15.4320923,61.9782692 C14.1979385,62.7100385 13.4677846,62.6276538 13.4758615,60.9250385 C13.5017077,55.2388846 13.4774769,49.5527308 13.4774769,43.8665769 C13.4774769,43.4304231 13.3417846,42.8811923 13.8651692,42.6744231 C14.3514,42.4838077 14.7714,42.8957308 15.0185538,43.2091154 C17.1702462,45.9310385 19.4673231,45.6564231 22.1407846,43.9037308 C24.4233231,42.4078846 26.8625538,43.8245769 29.2210154,44.0814231 C29.7960923,44.1428077 29.6555538,44.8099615 29.6571692,45.2283462 C29.6830154,50.5332692 29.6927077,55.8398077 29.6878615,61.1447308 C29.6878615,62.2335 29.2565538,62.7633462 28.1112462,62.1785769 Z" id="Stroke-3"></path>
                <path d="M10.4649462,16.7639769 C12.8007923,10.9082077 19.2752538,8.07320769 25.0938692,10.3605923 C30.8721,12.6334385 33.7200231,19.2209769 31.4407154,25.0476692 C29.1743308,30.8501308 22.6094077,33.6883615 16.7907923,31.3815923 C10.9398692,29.0635154 8.14040769,22.5939 10.4649462,16.7639769 Z" id="Stroke-5"></path>
            </g>
            <rect id="Rectangle-2-Copy" x="0" y="0" width="80" height="80"></rect>
        </g>
    </g>
</svg>