<?xml version="1.0" encoding="UTF-8" standalone="no"?>
<svg width="59px" height="49px" viewBox="0 0 59 49" version="1.1" xmlns="http://www.w3.org/2000/svg" xmlns:xlink="http://www.w3.org/1999/xlink">
    <!-- Generator: Sketch 46.2 (44496) - http://www.bohemiancoding.com/sketch -->
    <title>Integrity-Icon</title>
    <desc>Created with Sketch.</desc>
    <defs></defs>
    <g id="About-Us-Page" stroke="none" stroke-width="1" fill="none" fill-rule="evenodd">
        <g id="Integrity-Icon" transform="translate(-11.000000, -16.000000)">
            <g id="Handshake-Icon" transform="translate(12.000000, 17.000000)" stroke="#CA2B38" stroke-width="2" stroke-linecap="round" stroke-linejoin="round">
                <path d="M4.04472,30.5465966 L4.02354857,30.5239069 C2.83794857,29.3375621 2.84446286,27.4024586 4.03657714,26.2209759 L7.57383429,22.7235276 C8.76594857,21.5436655 10.71372,21.5501483 11.8976914,22.7364931 L11.9188629,22.7575621 C13.1044629,23.9455276 13.0995771,25.880631 11.9058343,27.0621138 L8.36857714,30.5595621 C7.17646286,31.7394241 5.23194857,31.7329414 4.04472,30.5465966 Z" id="Stroke-1"></path>
                <path d="M19.0248086,43.8728793 L18.6958371,43.5438793 C17.8180371,42.6638448 17.8229229,41.2295345 18.7056086,40.3559828 L23.2314086,35.8780172 C24.1157229,35.0044655 25.5570086,35.0093276 26.4348086,35.8877414 L26.76378,36.2183621 C27.64158,37.0967759 27.6366943,38.5310862 26.7540086,39.4046379 L22.22658,43.8826034 C21.3438943,44.7561552 19.9026086,44.7512931 19.0248086,43.8728793 Z" id="Stroke-3"></path>
                <path d="M14.3934771,40.0918103 L13.6736486,39.3722241 C12.5825057,38.2782586 12.5873914,36.4922586 13.6850486,35.4063966 L18.7987629,30.3482241 C19.8980486,29.2623621 21.6894771,29.2672241 22.7822486,30.3611897 L23.5020771,31.0807759 C24.5948486,32.1747414 24.5899629,33.9607414 23.4906771,35.0466034 L18.3769629,40.1047759 C17.2776771,41.1906379 15.4862486,41.1857759 14.3934771,40.0918103 Z" id="Stroke-5"></path>
                <path d="M9.09280286,35.0334759 L8.45440286,34.3949241 C7.37140286,33.3123034 7.37628857,31.5408897 8.46743143,30.463131 L14.5273457,24.4698207 C15.61686,23.3904414 17.39526,23.3969241 18.4798886,24.4811655 L19.1150314,25.1197172 C20.19966,26.2055793 20.1931457,27.9753724 19.1036314,29.053131 L13.0453457,35.0464414 C11.9558314,36.1242 10.1758029,36.1193379 9.09280286,35.0334759 Z" id="Stroke-7"></path>
                <path d="M46.1157686,3.16261379 C46.1157686,3.16261379 27.33834,-2.82583448 21.7474543,4.30682069 C16.1565686,11.4394759 14.6338543,17.1459241 14.6338543,17.1459241 C14.6338543,17.1459241 17.4740829,23.8507172 26.4198257,11.8673379 C26.4198257,11.8673379 28.1965971,7.82209655 49.4119971,24.3239586 C49.4119971,24.3239586 60.5774829,29.1552345 53.9996829,15.0390276 C53.9996829,15.0390276 50.84514,6.58226897 46.1157686,3.16261379 Z" id="Stroke-9"></path>
                <path d="M3.68529429,25.8190448 C0.584494286,24.2972172 0.81738,20.569631 0.81738,20.569631 L11.8558371,3.16342414 C11.8558371,3.16342414 16.1552657,6.68356207 20.8390371,5.11635517" id="Stroke-11"></path>
                <path d="M33.5721857,30.8567966 C41.1564429,35.4806241 43.0341857,37.1029345 43.0341857,37.1029345 C43.1221286,46.7460379 33.0396429,38.499969 30.6342429,37.1029345 C35.7333,39.9683138 36.7902429,41.3021414 37.1306143,42.2356586 C37.3179,42.7526586 36.9156429,44.238831 36.9156429,44.238831 C34.4499857,49.9015207 25.9065,43.3831069 24.6785571,42.405831" id="Stroke-13"></path>
                <path d="M43.6108629,37.1718138 C43.6108629,37.1718138 48.1236343,38.2576759 47.98032,32.9645034 C37.0656343,25.1219862 36.3344057,24.611469 36.3344057,24.611469 L47.98032,32.9645034 C47.98032,32.9645034 57.5237486,33.3016069 53.0093486,25.4558483" id="Stroke-15"></path>
            </g>
            <rect id="Rectangle-2-Copy-2" x="0" y="0" width="80" height="80"></rect>
        </g>
    </g>
</svg>