<?xml version="1.0" encoding="UTF-8" standalone="no"?>
<svg width="28px" height="73px" viewBox="0 0 28 73" version="1.1" xmlns="http://www.w3.org/2000/svg" xmlns:xlink="http://www.w3.org/1999/xlink">
    <!-- Generator: Sketch 46.2 (44496) - http://www.bohemiancoding.com/sketch -->
    <title>Leadership-Icon</title>
    <desc>Created with Sketch.</desc>
    <defs></defs>
    <g id="About-Us-Page" stroke="none" stroke-width="1" fill="none" fill-rule="evenodd">
        <g id="Leadership-Icon" transform="translate(-26.000000, -4.000000)">
            <g id="Tourch-Icon" transform="translate(27.000000, 5.000000)" stroke="#CA2B38" stroke-width="2" stroke-linecap="round" stroke-linejoin="round">
                <path d="M0.8126625,19.631646 C1.2172875,18.105606 1.5114125,16.539066 2.0492875,15.061626 C3.1429125,12.064626 5.1302875,9.642726 7.3874125,7.441146 C10.0345375,4.860486 13.0667875,2.806326 16.3070375,1.043766 C16.4581625,0.962766 16.6271625,0.915786 16.9001625,0.810486 C16.5329125,3.710286 16.6271625,6.451326 18.4520375,8.863506 C19.5537875,8.157186 20.3662875,7.070166 21.8027875,6.817446 C21.5704125,8.866746 22.4007875,10.580706 23.2132875,12.291426 C24.3930375,14.776506 25.0625375,17.374986 25.1535375,20.133846 C25.3062875,24.710346 22.5161625,29.016306 18.2472875,30.707586 C18.1140375,30.761046 17.9759125,30.801546 17.8410375,30.845286 C18.4617875,29.782566 19.1231625,28.779786 19.6545375,27.713826 C20.5905375,25.836246 20.4556625,23.944086 19.4806625,22.111866 C18.6177875,20.488626 17.7224125,18.883206 16.8302875,17.250246 C15.8114125,18.304866 15.7512875,19.735326 15.7074125,21.285666 C14.6804125,21.036186 13.9914125,20.454606 13.5380375,19.594386 C12.7677875,18.134766 12.8295375,16.568226 13.0765375,15.013026 C13.2471625,13.930866 13.5494125,12.871386 13.8159125,11.708226 C12.3956625,12.118086 11.2321625,12.884346 10.1840375,13.804506 C7.2086625,16.420806 6.4660375,19.754766 7.1989125,23.509926 C7.7091625,26.126226 8.9214125,28.416906 10.5545375,30.629826 C9.7387875,30.344706 8.9035375,30.104946 8.1105375,29.766366 C5.6145375,28.697166 3.3070375,27.320166 1.9989125,24.844806 C1.4074125,23.722146 1.1961625,22.400226 0.8126625,21.170646 L0.8126625,19.631646 Z" id="Stroke-1"></path>
                <path d="M12.8454625,35.042356 C15.8793375,35.042356 18.9132125,35.100676 21.9454625,35.021296 C23.8320875,34.972696 24.2708375,36.362656 23.7768375,37.642456 C22.2574625,41.580676 20.7917125,45.541576 19.3389625,49.507336 C19.1439625,50.037076 18.8855875,50.182876 18.3444625,50.178016 C14.7727125,50.153716 11.1977125,50.150476 7.6259625,50.181256 C7.0555875,50.187736 6.8378375,49.981996 6.6444625,49.484656 C5.1055875,45.551296 3.5374625,41.630896 1.9790875,37.707256 C1.3079625,36.017596 1.9482125,35.047216 3.7454625,35.043976 C6.7793375,35.039116 9.8115875,35.042356 12.8454625,35.042356 Z" id="Stroke-3"></path>
                <path d="M6.9580875,55.261038 L19.0578375,55.261038 C18.8660875,56.1516597 18.6824625,57.0133768 18.4923375,57.8741906 C17.7919625,61.0320135 17.0883375,64.1898364 16.3879625,67.3476593 C16.2807125,67.8291008 16.1880875,68.3114456 16.0678375,68.7910806 C15.8338375,69.7223493 14.5127125,70.4214783 13.0047125,70.4223816 C11.4950875,70.4241881 10.1463375,69.7286722 9.9367125,68.795597 C9.1940875,65.4977676 8.4758375,62.1972285 7.7445875,58.8966894 C7.5170875,57.8633514 7.2782125,56.8300135 7.0490875,55.7966756 C7.0117125,55.6295711 6.9922125,55.4606601 6.9580875,55.261038 Z" id="Stroke-5"></path>
            </g>
            <rect id="Rectangle-2" x="0" y="0" width="80" height="80"></rect>
        </g>
    </g>
</svg>